<svg xmlns="http://www.w3.org/2000/svg" viewBox="0 0 64 64" fill="none" stroke="currentColor" stroke-width="1.5" stroke-linecap="round" stroke-linejoin="round">
  <path d="M32 60 C32 60 8 44 6 20 C6 20 18 14 32 8 C46 14 58 20 58 20 C56 44 32 60 32 60Z" opacity="0.9"/>
  <path d="M32 8 L32 60" opacity="0.7"/>
  <path d="M32 20 C26 18 20 20 16 24" opacity="0.5"/>
  <path d="M32 30 C38 28 44 30 48 34" opacity="0.5"/>
  <path d="M32 40 C26 38 20 40 18 44" opacity="0.5"/>
  <path d="M32 50 C36 48 40 50 44 52" opacity="0.5"/>
</svg>
