<svg xmlns="http://www.w3.org/2000/svg" viewBox="0 0 100 100" width="100" height="100">
  <!-- Orange base with black diagonal tiger stripes -->
  <rect width="100" height="100" fill="#FB4F14" opacity="0.15"/>
  <g fill="#000000" opacity="0.6">
    <path d="M-10 10 L10 -10 L18 -10 L-10 18Z"/>
    <path d="M20 10 L40 -10 L48 -10 L20 18Z"/>
    <path d="M50 10 L70 -10 L78 -10 L50 18Z"/>
    <path d="M80 10 L100 -10 L108 -10 L80 18Z"/>
    <path d="M-10 40 L10 20 L18 20 L-10 48Z"/>
    <path d="M20 40 L40 20 L48 20 L20 48Z"/>
    <path d="M50 40 L70 20 L78 20 L50 48Z"/>
    <path d="M80 40 L100 20 L108 20 L80 48Z"/>
    <path d="M-10 70 L10 50 L18 50 L-10 78Z"/>
    <path d="M20 70 L40 50 L48 50 L20 78Z"/>
    <path d="M50 70 L70 50 L78 50 L50 78Z"/>
    <path d="M80 70 L100 50 L108 50 L80 78Z"/>
    <path d="M-10 100 L10 80 L18 80 L-10 108Z"/>
    <path d="M20 100 L40 80 L48 80 L20 108Z"/>
    <path d="M50 100 L70 80 L78 80 L50 108Z"/>
    <path d="M80 100 L100 80 L108 80 L80 108Z"/>
  </g>
</svg>