<svg xmlns="http://www.w3.org/2000/svg" viewBox="0 0 20 800" width="20" height="800">
  <g fill="#2aaa3a" stroke="#2aaa3a" stroke-width="0.5">
    <!-- Main vertical vine -->
    <path d="M10 0 C12 50 8 100 10 150 C12 200 7 250 10 300 C13 350 8 400 10 450 C12 500 7 550 10 600 C13 650 8 700 10 750 C12 780 10 800 10 800" fill="none" stroke-width="2.5"/>
    <!-- Tendrils curling outward -->
    <path d="M10 50 C15 45 18 42 17 38" fill="none" stroke-width="1.2"/>
    <path d="M10 120 C5 115 2 112 3 108" fill="none" stroke-width="1.2"/>
    <path d="M10 200 C16 195 19 190 18 186" fill="none" stroke-width="1.2"/>
    <path d="M10 280 C4 275 1 270 2 266" fill="none" stroke-width="1.2"/>
    <path d="M10 370 C15 365 18 360 17 356" fill="none" stroke-width="1.2"/>
    <path d="M10 450 C5 445 2 440 3 436" fill="none" stroke-width="1.2"/>
    <path d="M10 540 C16 535 19 530 18 526" fill="none" stroke-width="1.2"/>
    <path d="M10 630 C4 625 1 620 2 616" fill="none" stroke-width="1.2"/>
    <path d="M10 720 C15 715 18 710 17 706" fill="none" stroke-width="1.2"/>
    <!-- Small leaves along vine -->
    <ellipse cx="14" cy="80" rx="3" ry="6" transform="rotate(15 14 80)" opacity="0.8"/>
    <ellipse cx="6" cy="160" rx="3" ry="6" transform="rotate(-15 6 160)" opacity="0.8"/>
    <ellipse cx="15" cy="240" rx="3" ry="5" transform="rotate(20 15 240)" opacity="0.8"/>
    <ellipse cx="5" cy="330" rx="3" ry="6" transform="rotate(-20 5 330)" opacity="0.8"/>
    <ellipse cx="14" cy="410" rx="3" ry="5" transform="rotate(15 14 410)" opacity="0.8"/>
    <ellipse cx="6" cy="490" rx="3" ry="6" transform="rotate(-15 6 490)" opacity="0.8"/>
    <ellipse cx="15" cy="580" rx="3" ry="5" transform="rotate(20 15 580)" opacity="0.8"/>
    <ellipse cx="5" cy="660" rx="3" ry="6" transform="rotate(-20 5 660)" opacity="0.8"/>
    <ellipse cx="14" cy="750" rx="3" ry="5" transform="rotate(15 14 750)" opacity="0.8"/>
  </g>
</svg>