<svg xmlns="http://www.w3.org/2000/svg" viewBox="0 0 1200 20" width="1200" height="20">
  <g fill="#2aaa3a" stroke="#2aaa3a" stroke-width="0.5">
    <!-- Main vine branch -->
    <path d="M0 10 C50 8 100 12 150 9 C200 6 250 13 300 10 C350 7 400 14 450 10 C500 6 550 13 600 10 C650 7 700 14 750 10 C800 6 850 13 900 10 C950 7 1000 14 1050 10 C1100 7 1150 12 1200 10" fill="none" stroke-width="2"/>
    <!-- Curling tendrils -->
    <path d="M75 9 C78 4 82 3 85 5" fill="none" stroke-width="1.2"/>
    <path d="M175 11 C172 16 168 17 165 15" fill="none" stroke-width="1.2"/>
    <path d="M275 9 C278 4 283 2 286 5" fill="none" stroke-width="1.2"/>
    <path d="M375 12 C372 17 368 18 365 16" fill="none" stroke-width="1.2"/>
    <path d="M475 8 C478 3 483 2 486 5" fill="none" stroke-width="1.2"/>
    <path d="M575 11 C572 16 568 17 565 15" fill="none" stroke-width="1.2"/>
    <path d="M675 9 C678 4 683 2 686 5" fill="none" stroke-width="1.2"/>
    <path d="M775 12 C772 17 768 18 765 16" fill="none" stroke-width="1.2"/>
    <path d="M875 8 C878 3 883 2 886 5" fill="none" stroke-width="1.2"/>
    <path d="M975 11 C972 16 968 17 965 15" fill="none" stroke-width="1.2"/>
    <path d="M1075 9 C1078 4 1083 2 1086 5" fill="none" stroke-width="1.2"/>
    <path d="M1175 12 C1172 17 1168 18 1165 16" fill="none" stroke-width="1.2"/>
    <!-- Small leaves -->
    <ellipse cx="50" cy="8" rx="5" ry="3" transform="rotate(-30 50 8)" opacity="0.8"/>
    <ellipse cx="150" cy="12" rx="5" ry="3" transform="rotate(25 150 12)" opacity="0.8"/>
    <ellipse cx="250" cy="9" rx="4" ry="2.5" transform="rotate(-20 250 9)" opacity="0.8"/>
    <ellipse cx="350" cy="11" rx="5" ry="3" transform="rotate(30 350 11)" opacity="0.8"/>
    <ellipse cx="450" cy="8" rx="4" ry="2.5" transform="rotate(-25 450 8)" opacity="0.8"/>
    <ellipse cx="550" cy="12" rx="5" ry="3" transform="rotate(20 550 12)" opacity="0.8"/>
    <ellipse cx="650" cy="9" rx="5" ry="3" transform="rotate(-30 650 9)" opacity="0.8"/>
    <ellipse cx="750" cy="11" rx="4" ry="2.5" transform="rotate(25 750 11)" opacity="0.8"/>
    <ellipse cx="850" cy="8" rx="5" ry="3" transform="rotate(-20 850 8)" opacity="0.8"/>
    <ellipse cx="950" cy="12" rx="5" ry="3" transform="rotate(30 950 12)" opacity="0.8"/>
    <ellipse cx="1050" cy="9" rx="4" ry="2.5" transform="rotate(-25 1050 9)" opacity="0.8"/>
    <ellipse cx="1150" cy="11" rx="5" ry="3" transform="rotate(20 1150 11)" opacity="0.8"/>
  </g>
</svg>